<?xml version="1.0" standalone="no"?>
<!DOCTYPE svg PUBLIC "-//W3C//DTD SVG 20010904//EN"
 "http://www.w3.org/TR/2001/REC-SVG-20010904/DTD/svg10.dtd">
<svg version="1.0" xmlns="http://www.w3.org/2000/svg"
 width="811.000000pt" height="680.000000pt" viewBox="0 0 811.000000 680.000000"
 preserveAspectRatio="xMidYMid meet">

<g transform="translate(0.000000,680.000000) scale(0.100000,-0.100000)"
fill="#000000" stroke="none">
<path d="M0 5039 l0 -1762 44 -66 c41 -63 197 -373 209 -416 3 -11 24 -69 47
-130 47 -124 96 -285 109 -360 5 -27 14 -61 19 -75 5 -14 15 -67 22 -118 18
-128 9 -708 -11 -726 -26 -24 -121 -36 -280 -36 l-159 0 0 -675 0 -675 3553 0
3553 0 17 83 c10 45 24 93 31 107 8 14 17 48 20 75 4 28 14 70 22 93 8 24 16
56 18 70 9 69 19 112 26 112 10 0 30 72 30 109 0 18 9 49 20 71 11 22 20 50
20 64 0 14 4 27 9 30 4 3 11 30 14 59 3 30 14 72 25 93 10 22 17 51 15 66 -2
15 3 33 12 41 8 9 17 29 19 45 2 16 6 34 9 39 4 6 9 31 12 56 3 26 12 64 19
85 8 21 12 50 11 65 -2 15 1 29 6 33 5 3 7 10 4 15 -4 5 1 21 10 36 16 29 42
139 50 209 2 23 11 61 20 85 9 24 19 53 21 64 10 36 28 66 45 76 22 11 126 -8
159 -31 14 -9 68 -27 120 -40 52 -12 104 -29 115 -36 11 -8 39 -14 63 -14 l43
0 -3 128 -3 127 -25 3 c-59 7 -88 23 -93 50 -4 18 0 31 11 40 9 7 34 28 55 47
21 19 42 35 47 35 6 0 10 48 10 115 0 79 -4 115 -11 115 -14 0 -79 -39 -94
-55 -5 -7 -47 -44 -92 -83 -45 -39 -91 -80 -102 -91 -11 -11 -34 -27 -50 -36
-17 -8 -31 -20 -31 -25 0 -19 -69 -23 -96 -5 -24 15 -26 21 -19 59 4 22 11 70
15 106 11 83 52 238 72 270 9 14 18 40 22 59 3 19 15 52 25 75 10 23 32 70 49
106 82 179 95 206 107 220 8 8 27 43 44 77 17 34 36 65 42 68 6 4 19 26 30 49
11 22 35 67 54 100 l35 58 0 1714 0 1714 -4055 0 -4055 0 0 -1761z m6810 401
c29 -6 73 -23 98 -40 81 -53 212 -191 212 -222 0 -8 5 -19 10 -24 10 -10 16
-29 26 -89 8 -42 -16 -104 -49 -129 -39 -29 -151 -28 -202 3 -97 57 -307 261
-325 314 -23 74 13 148 90 181 42 18 70 19 140 6z m-5575 -96 c29 -10 66 -45
77 -74 35 -86 8 -165 -93 -274 -35 -38 -82 -89 -104 -112 -40 -43 -93 -130
-141 -234 -72 -153 -78 -160 -159 -171 -42 -6 -57 -3 -97 19 -91 48 -103 154
-41 341 14 42 34 92 44 111 26 48 102 155 152 214 23 26 48 59 56 71 14 22 30
33 151 97 55 29 101 33 155 12z m1170 -134 c33 -2 71 -8 85 -15 14 -7 50 -18
80 -25 30 -7 77 -26 105 -42 27 -16 75 -41 105 -57 30 -16 64 -37 75 -48 11
-10 55 -47 98 -83 43 -36 87 -79 97 -95 10 -17 31 -44 45 -60 63 -72 179 -288
192 -358 3 -18 14 -61 24 -97 11 -36 23 -96 28 -135 6 -38 13 -81 16 -95 7
-29 9 -236 2 -247 -3 -5 -8 -33 -12 -63 -16 -133 -25 -170 -60 -250 -20 -47
-41 -101 -47 -120 -12 -42 -91 -168 -167 -265 -93 -119 -244 -255 -282 -255
-7 0 -44 -20 -83 -44 -39 -24 -88 -49 -109 -56 -20 -6 -43 -18 -51 -25 -15
-15 -124 -33 -251 -41 -95 -7 -221 8 -265 30 -18 8 -60 20 -94 26 -80 15 -227
88 -338 168 -75 55 -232 235 -278 319 -11 21 -33 61 -49 88 -57 101 -61 110
-61 131 0 12 -9 41 -19 65 -11 24 -24 72 -30 107 -5 34 -13 67 -16 72 -4 6 -7
107 -7 224 1 166 4 221 15 249 9 20 18 62 22 94 8 72 43 189 67 225 10 14 18
37 18 51 0 13 7 30 15 37 8 6 31 42 51 78 21 37 56 89 78 116 54 65 242 225
297 254 24 13 62 34 84 47 22 14 58 29 80 35 22 6 60 20 84 32 24 11 69 24
100 27 57 6 249 7 356 1z m3650 -15 c22 -9 64 -23 93 -31 29 -8 70 -22 90 -32
141 -71 182 -95 217 -132 22 -23 61 -57 87 -76 26 -19 57 -52 69 -72 13 -20
37 -52 54 -69 31 -33 75 -107 118 -199 14 -28 29 -54 35 -58 5 -3 15 -30 22
-58 7 -29 21 -67 31 -84 13 -21 22 -67 29 -150 6 -65 15 -137 20 -159 14 -58
12 -131 -4 -226 -8 -46 -18 -110 -21 -142 -4 -32 -18 -85 -31 -118 -13 -32
-24 -65 -24 -73 0 -9 -22 -62 -49 -118 -67 -141 -215 -334 -321 -420 -74 -60
-293 -174 -360 -189 -30 -6 -64 -17 -75 -25 -11 -7 -73 -18 -139 -24 -174 -18
-306 -2 -403 49 -32 17 -66 31 -76 31 -18 0 -256 118 -267 131 -3 4 -47 52
-98 107 -52 55 -100 112 -107 126 -7 14 -19 31 -25 38 -37 41 -140 250 -163
328 -35 121 -58 301 -58 448 1 86 5 150 11 157 6 7 16 68 21 136 11 121 12
125 70 245 33 68 66 129 73 137 8 7 23 31 35 53 21 40 57 82 164 192 59 61
257 202 282 202 7 0 23 8 36 19 13 10 40 22 59 26 19 4 48 14 64 22 44 23 152
32 336 29 129 -3 174 -7 205 -21z m2025 -1049 c0 -3 -4 -8 -10 -11 -5 -3 -10
-1 -10 4 0 6 5 11 10 11 6 0 10 -2 10 -4z m-3370 -2771 c0 -8 -4 -15 -10 -15
-5 0 -10 7 -10 15 0 8 5 15 10 15 6 0 10 -7 10 -15z m-1344 -41 c-10 -9 -15
-31 -14 -55 2 -50 -5 -56 -33 -30 -17 15 -26 18 -41 10 -20 -11 -16 -29 8 -29
20 0 18 -16 -6 -40 -24 -24 -28 -25 -52 -3 -24 21 -23 49 2 70 11 10 20 20 20
24 0 15 73 79 91 79 10 0 19 6 19 13 0 6 5 4 11 -6 7 -13 6 -21 -5 -33z m1502
-117 c-2 -11 -16 -28 -33 -38 -34 -20 -49 -23 -41 -10 4 5 1 11 -6 13 -7 3 -1
16 16 35 31 35 69 35 64 0z m-1568 -62 c0 -8 -2 -15 -4 -15 -2 0 -6 7 -10 15
-3 8 -1 15 4 15 6 0 10 -7 10 -15z"/>
<path d="M2330 4839 c-84 -11 -159 -29 -166 -40 -3 -5 17 -31 44 -57 44 -43
50 -55 56 -103 4 -30 12 -66 18 -81 25 -66 -65 -297 -134 -342 -31 -19 -141
-56 -170 -56 -35 0 -143 35 -183 60 -19 12 -45 20 -57 18 -22 -3 -23 -7 -28
-128 -4 -92 -1 -146 11 -205 15 -72 63 -205 90 -245 5 -8 18 -32 27 -52 44
-90 204 -226 299 -253 32 -9 72 -25 89 -36 27 -16 51 -19 176 -19 127 0 148 2
169 19 13 10 51 24 84 31 33 7 69 21 80 30 11 10 27 21 36 26 26 14 192 176
215 209 11 17 26 50 33 75 7 25 20 53 28 62 8 9 27 68 43 130 24 100 26 124
20 203 -18 224 -122 461 -254 582 -50 46 -211 137 -286 161 -47 16 -161 21
-240 11z"/>
<path d="M5517 4839 c-51 -7 -118 -35 -227 -95 -19 -10 -73 -57 -120 -104
-124 -124 -171 -223 -216 -455 -22 -115 -3 -327 36 -390 10 -16 21 -47 25 -67
4 -21 18 -50 31 -65 13 -15 24 -38 24 -51 0 -28 83 -117 168 -179 34 -25 62
-49 62 -53 0 -4 26 -13 58 -20 31 -8 80 -24 107 -37 44 -20 65 -23 185 -23
116 0 141 3 172 20 20 11 58 25 85 31 26 7 62 23 78 35 17 13 43 33 60 46 73
56 165 161 177 202 7 22 25 59 40 80 15 21 28 45 28 53 0 7 12 37 27 66 26 50
27 57 26 208 -1 202 -13 226 -91 179 -18 -11 -60 -29 -95 -41 -74 -25 -116
-22 -208 18 -105 45 -157 120 -178 258 -7 49 -7 82 0 110 6 22 17 65 24 95 18
76 23 86 51 98 43 20 31 49 -27 66 -63 19 -225 27 -302 15z"/>
</g>
</svg>
